<?xml version="1.0" encoding="UTF-8"?><svg id="Ebene_2" xmlns="http://www.w3.org/2000/svg" viewBox="0 0 490.57 139.29"><defs><style>.cls-1,.cls-2{fill:#fff;}.cls-2{fill-rule:evenodd;}</style></defs><g id="_图层_1"><path class="cls-1" d="m98.79,18.36V.3c0-.28-.34-.41-.53-.2l-33.5,37.3c-2.4,2.67-3.77,6.11-3.88,9.7l-2.05,71.89c0,.32.41.43.57.16l4.18-7.25c.49-.85.81-1.79.95-2.76l5.97-43.79c.87-6.37,3.74-12.3,8.2-16.93l13.74-14.28c4.08-4.24,6.35-9.9,6.35-15.77"/><path class="cls-1" d="m0,18.36V.3C0,.03.34-.11.53.1l33.5,37.3c2.4,2.67,3.77,6.11,3.88,9.7l2.06,71.89c0,.32-.41.43-.57.16l-4.18-7.25c-.49-.85-.81-1.79-.95-2.76l-5.97-43.79c-.87-6.37-3.74-12.3-8.2-16.93l-13.74-14.28C2.28,29.89,0,24.24,0,18.36"/><path class="cls-1" d="m53.7,40.59l-3.91-3.38c-.23-.2-.57-.2-.8,0l-3.91,3.38c-.69.6-1.07,1.47-1.05,2.38l2.62,91.52c0,.25.08.5.2.72l2.27,3.92c.12.2.41.2.53,0l2.27-3.92c.13-.22.19-.46.2-.72l2.62-91.52c.02-.91-.36-1.78-1.05-2.38"/><path class="cls-2" d="m307.03,70.21l-18.5-14.77c-1.54-1.23-3.46-1.9-5.43-1.9h-11.22c-.25,0-.36.31-.16.46l31.3,25.38v13.95c0,.14.12.26.26.26h9.7c.14,0,.26-.12.26-.26v-13.95l31.33-25.4c.19-.16.06-.45-.18-.45h-11.23c-1.97,0-3.89.67-5.43,1.9l-18.5,14.77c-.64.51-1.54.51-2.17,0Z"/><path class="cls-2" d="m378.3,55.81c-2.78-3.2-7.74-3.2-10.52,0l-32.45,37.36c-.15.17-.03.43.2.43h10.59c1.37,0,2.68-.55,3.64-1.54l21.3-24.88c1.04-1.22,2.92-1.22,3.97,0l21.38,24.96c.95.93,2.23,1.45,3.55,1.45h10.59c.23,0,.34-.27.2-.43l-32.45-37.36Z"/><path class="cls-2" d="m146.74,91.33c2.78,3.2,7.74,3.2,10.52,0l32.45-37.36c.15-.17.03-.43-.2-.43h-10.59c-1.37,0-2.68.55-3.64,1.54l-21.3,24.88c-1.04,1.22-2.92,1.22-3.97,0l-21.38-24.96c-.95-.93-2.23-1.45-3.55-1.45h-10.59c-.23,0-.34.27-.2.43l32.45,37.36Z"/><path class="cls-2" d="m490.23,53.54h-10.19c-.14,0-.26.12-.26.26l.08,13.32c0,.5-.41.91-.91.91h-48.98c-.5,0-.9-.41-.9-.9l-.08-13.32c0-.14-.12-.26-.26-.26h-10.25c-.14,0-.26.12-.26.26l.08,39.53c0,.14.12.26.26.26h10.25c.14,0,.26-.12.26-.26v-14.18c0-.5.41-.91.91-.91h48.98c.5,0,.91.41.91.91v14.18c0,.14.12.26.26.26h10.19c.14,0,.26-.12.26-.26l-.08-39.53c0-.14-.12-.26-.26-.26Z"/><path class="cls-2" d="m193.7,65.64v15.87c0,6.68,5.41,12.09,12.09,12.09h49.61c6.68,0,12.09-5.41,12.09-12.09v-15.87c0-6.68-5.41-12.09-12.09-12.09h-49.61c-6.68,0-12.09,5.41-12.09,12.09Zm59.05,18.62h-44.3c-2.49,0-4.5-2.02-4.5-4.5v-12.36c0-2.49,2.02-4.5,4.5-4.5h44.3c2.49,0,4.5,2.02,4.5,4.5v12.36c0,2.49-2.02,4.5-4.5,4.5Z"/></g></svg>