<?xml version="1.0" encoding="UTF-8"?>
<svg id="Ebene_2" data-name="Ebene 2" xmlns="http://www.w3.org/2000/svg" viewBox="0 0 614.9 139.1" width="614.9" height="139.1">
  <defs>
    <style>
      .cls-1 {
        fill: #20bcb4;
      }

      .cls-2 {
        fill: #5a6770;
      }
    </style>
  </defs>
  <polygon class="cls-1" points="526.1 74.3 526.1 104.7 554.8 88.1 583.5 104.7 583.5 74.3 554.8 57.7 526.1 74.3"/>
  <polygon class="cls-1" points="586.2 0 560 15.2 560 48.5 588.7 65.2 614.9 50 586.2 33.3 586.2 0"/>
  <polygon class="cls-1" points="523.4 0 523.4 33.3 494.7 50 520.9 65.2 549.6 48.5 549.6 15.2 523.4 0"/>
  <polygon class="cls-2" points="413.4 96.7 472.8 96.7 472.8 80.6 429.6 80.6 429.6 8 413.4 8 413.4 96.7"/>
  <polygon class="cls-2" points="337.5 96.7 401.2 96.7 401.2 80.6 353.8 80.6 353.8 59.5 390 59.5 390 43.1 353.8 43.1 353.8 24 401.2 24 401.2 8 337.5 8 337.5 96.7"/>
  <path class="cls-2" d="m277.1,34v-3.1c0-3.7,3-6.9,6.7-6.9h18c3.6,0,5.5,2.2,6.7,6.4l.7,2.3,14.2-8.2c-3-9.6-11.8-16.5-22.4-16.5h-17.4c-13.1,0-22.7,9.6-22.7,22.7v4.1c0,9.7,6.1,18.7,15,21.1l28,7.6c2.5.6,4.2,3.2,4.2,6v4.4c0,3.7-3,6.9-6.6,6.9h-19.9c-3.7,0-5.6-2.2-6.9-6.4l-.7-2.1-14.2,8.3c3.2,9.5,12,16.2,22.6,16.2h18.1c13.5-.1,23.5-10.8,23.5-24.2v-3.2c0-10.6-7.2-19.1-17-21.6l-23.3-6c-4.2-1.1-6.5-3.5-6.6-7.8"/>
  <rect class="cls-2" x="231" y="8" width="16.3" height="88.7"/>
  <polygon class="cls-2" points="155.1 96.7 218.8 96.7 218.8 80.6 171.3 80.6 171.3 59.5 207.6 59.5 207.6 43.1 171.3 43.1 171.3 24 218.8 24 218.8 8 155.1 8 155.1 96.7"/>
  <path class="cls-2" d="m123.9,37.5c0,3.7-3,6.7-6.7,6.7h-24.6v-20.2h24.6c3.7,0,6.7,3.1,6.7,6.9,0,0,0,6.6,0,6.6Zm16.2-.7v-5.1c0-13.1-10.7-23.7-23.7-23.7h-40v88.7h16.2v-36.3h14.4l15,23.7c1.8,2.7,2,3.7,2,6v6.6h16v-4.2c0-6.5-.1-9.3-5.1-17.1l-10.4-16.4c9.1-3.3,15.5-12,15.6-22.2"/>
  <path class="cls-2" d="m1,96.7h16.2v-22.1l11.5-16.8,17.5,26.5c2.1,3.1,2.2,4.7,2.2,9.3v3h16v-3c0-6.2-.5-11.3-4.9-18.1l-20.8-32L63.5,8h-18.4l-27.9,37.9V8H1v88.7Z"/>
  <path class="cls-2" d="m12.1,119.2l1.3,16.8,7.8-16.8h1.6l-9.2,19.6h-1.5l-1.4-16.7-7.7,16.7h-1.5l-1.5-19.6h1.6l1.3,16.8,7.9-16.8c-.1,0,1.3,0,1.3,0Z"/>
  <path class="cls-2" d="m47.6,119.2l-.2,1.5h-10.6l-1.3,7.3h9.6l-.3,1.5h-9.6l-1.4,7.9h10.5l-.2,1.5h-12.1l3.5-19.6,12.1-.1h0Z"/>
  <path class="cls-2" d="m79.4,119.2h5.7c5.1,0,8,3.2,8,8.1,0,6.7-4.9,11.4-11.3,11.4h-5.9l3.5-19.5h0Zm2.7,18.1c5.4,0,9.4-4.1,9.4-9.9,0-4.1-2.3-6.6-6.5-6.6h-4.2l-2.9,16.6c-.1-.1,4.2-.1,4.2-.1Z"/>
  <path class="cls-2" d="m107.9,130.2l-1.5,8.6h-1.6l3.4-19.6h6.6c3.4,0,5.5,1.6,5.5,4.7,0,3.6-2.5,5.8-6,6.2l4.4,8.7h-1.7l-4.3-8.6h-4.8Zm.3-1.5h5.2c3.3,0,5.3-1.8,5.3-4.8,0-2.1-1.5-3.2-4.1-3.2h-5l-1.4,8Z"/>
  <path class="cls-2" d="m133.3,138.8h-1.6l3.4-19.6h1.6l-3.4,19.6Z"/>
  <path class="cls-2" d="m153.1,138.8l-3.8-19.6h1.6l3.3,17.3,10.3-17.3h1.7l-11.7,19.6h-1.4Z"/>
  <path class="cls-2" d="m191.1,119.2l-.2,1.5h-10.6l-1.3,7.3h9.6l-.3,1.5h-9.6l-1.4,7.9h10.5l-.2,1.5h-12.1l3.4-19.6,12.2-.1h0Z"/>
  <path class="cls-2" d="m221.2,119.2h16l-.3,1.5h-7.2l-3.2,18.1h-1.6l3.2-18.1h-7.1l.2-1.5h0Z"/>
  <path class="cls-2" d="m265.6,119.2l-3.5,19.6h-1.6l1.7-9.4h-12.4l-1.6,9.4h-1.6l3.4-19.6h1.6l-1.6,8.8h12.4l1.5-8.7,1.7-.1h0Z"/>
  <path class="cls-2" d="m292.6,119.2l-.2,1.5h-10.6l-1.3,7.3h9.6l-.3,1.5h-9.6l-1.4,7.9h10.5l-.2,1.5h-12.1l3.5-19.6,12.1-.1h0Z"/>
  <path class="cls-2" d="m320.9,138.8l3.5-19.6h11.3l-.2,1.5h-9.7l-1.3,7.5h9.2l-.3,1.5h-9.2l-1.6,9.2-1.7-.1h0Z"/>
  <path class="cls-2" d="m346.1,132.8c0-.5.1-1.1.2-1.9l2.1-11.7h1.6l-2,11.6c-.1.6-.2,1.2-.2,1.7,0,3.4,2.1,5,5.1,5,3.5,0,6-2.1,6.8-6.7l2-11.6h1.6l-2.1,11.9c-1,5.4-4.1,8-8.4,8-3.8,0-6.7-2.2-6.7-6.3h0Z"/>
  <path class="cls-2" d="m375.9,119.2h16l-.3,1.5h-7.2l-3.2,18.1h-1.6l3.2-18.1h-7.1l.2-1.5h0Z"/>
  <path class="cls-2" d="m402.3,132.8c0-.5.1-1.1.2-1.9l2.1-11.7h1.6l-2,11.6c-.1.6-.2,1.2-.2,1.7,0,3.4,2.1,5,5.1,5,3.5,0,6-2.1,6.8-6.7l2-11.6h1.6l-2.1,11.9c-1,5.4-4.1,8-8.4,8-3.8,0-6.7-2.2-6.7-6.3h0Z"/>
  <path class="cls-2" d="m433.6,130.2l-1.5,8.6h-1.6l3.5-19.6h6.6c3.4,0,5.5,1.6,5.5,4.7,0,3.6-2.5,5.8-6,6.2l4.4,8.7h-1.7l-4.3-8.6h-4.9Zm.3-1.5h5.2c3.3,0,5.3-1.8,5.3-4.8,0-2.1-1.5-3.2-4.1-3.2h-5l-1.4,8Z"/>
  <path class="cls-2" d="m473,119.2l-.2,1.5h-10.6l-1.3,7.3h9.6l-.3,1.5h-9.6l-1.4,7.9h10.5l-.2,1.5h-12.1l3.5-19.6,12.1-.1h0Z"/>
</svg>
